<svg xmlns="http://www.w3.org/2000/svg" xmlns:xlink="http://www.w3.org/1999/xlink" width="500" zoomAndPan="magnify" viewBox="0 0 375 374.999991" height="500" preserveAspectRatio="xMidYMid meet" version="1.0"><defs><g/></defs><g fill="#000000" fill-opacity="1"><g transform="translate(124.980464, 197.999987)"><g><path d="M 35.734375 -19.40625 C 35.765625 -19.207031 35.707031 -19.015625 35.5625 -18.828125 C 35.425781 -18.648438 35.25 -18.546875 35.03125 -18.515625 C 33.320312 -18.328125 31.710938 -18.078125 30.203125 -17.765625 C 28.691406 -17.453125 27.25 -17.085938 25.875 -16.671875 C 25.257812 -13.867188 24.628906 -11.046875 23.984375 -8.203125 C 23.335938 -5.367188 22.71875 -2.625 22.125 0.03125 C 21.539062 2.695312 21.003906 5.15625 20.515625 7.40625 C 20.023438 9.664062 19.601562 11.609375 19.25 13.234375 C 18.90625 14.859375 18.660156 16.046875 18.515625 16.796875 C 17.929688 19.460938 17.09375 21.597656 16 23.203125 C 14.90625 24.816406 13.617188 25.804688 12.140625 26.171875 C 11.742188 26.273438 11.335938 26.328125 10.921875 26.328125 C 8.960938 26.328125 7.15625 25.335938 5.5 23.359375 C 4.601562 22.285156 3.867188 20.898438 3.296875 19.203125 C 2.722656 17.515625 2.351562 15.617188 2.1875 13.515625 C 2.019531 11.421875 2.09375 9.21875 2.40625 6.90625 C 2.726562 4.59375 3.351562 2.273438 4.28125 -0.046875 C 6.382812 -5.191406 9.734375 -9.445312 14.328125 -12.8125 C 17.265625 -14.9375 20.664062 -16.644531 24.53125 -17.9375 C 25.0625 -20.3125 25.582031 -22.601562 26.09375 -24.8125 C 26.613281 -27.03125 27.097656 -29.0625 27.546875 -30.90625 C 28.023438 -32.925781 28.296875 -34.492188 28.359375 -35.609375 C 28.429688 -36.734375 28.398438 -37.523438 28.265625 -37.984375 C 28.128906 -38.453125 27.988281 -38.695312 27.84375 -38.71875 C 27.507812 -38.832031 27.023438 -38.628906 26.390625 -38.109375 C 25.765625 -37.597656 25.113281 -36.875 24.4375 -35.9375 C 23.769531 -35 23.210938 -33.925781 22.765625 -32.71875 C 22.535156 -32.132812 22.351562 -31.4375 22.21875 -30.625 C 22.082031 -29.8125 22.125 -29.023438 22.34375 -28.265625 C 22.570312 -27.503906 23.132812 -26.929688 24.03125 -26.546875 C 24.21875 -26.460938 24.351562 -26.3125 24.4375 -26.09375 C 24.519531 -25.882812 24.519531 -25.6875 24.4375 -25.5 C 24.351562 -25.300781 24.207031 -25.160156 24 -25.078125 C 23.789062 -24.992188 23.578125 -24.992188 23.359375 -25.078125 C 21.984375 -25.691406 21.101562 -26.722656 20.71875 -28.171875 C 20.34375 -29.628906 20.519531 -31.34375 21.25 -33.3125 C 21.5625 -34.144531 21.988281 -35.007812 22.53125 -35.90625 C 23.082031 -36.800781 23.6875 -37.613281 24.34375 -38.34375 C 25 -39.070312 25.671875 -39.625 26.359375 -40 C 27.046875 -40.382812 27.695312 -40.476562 28.3125 -40.28125 C 30.269531 -39.6875 30.535156 -36.4375 29.109375 -30.53125 C 28.679688 -28.800781 28.226562 -26.910156 27.75 -24.859375 C 27.28125 -22.816406 26.796875 -20.691406 26.296875 -18.484375 C 28.953125 -19.234375 31.804688 -19.78125 34.859375 -20.125 C 35.054688 -20.144531 35.242188 -20.082031 35.421875 -19.9375 C 35.609375 -19.800781 35.710938 -19.625 35.734375 -19.40625 Z M 16.921875 16.46875 C 17.085938 15.738281 17.335938 14.585938 17.671875 13.015625 C 18.015625 11.453125 18.421875 9.578125 18.890625 7.390625 C 19.367188 5.203125 19.890625 2.8125 20.453125 0.21875 C 21.015625 -2.363281 21.609375 -5.039062 22.234375 -7.8125 C 22.867188 -10.582031 23.492188 -13.34375 24.109375 -16.09375 C 20.460938 -14.800781 17.425781 -13.222656 15 -11.359375 C 12.582031 -9.492188 10.640625 -7.523438 9.171875 -5.453125 C 7.703125 -3.390625 6.578125 -1.375 5.796875 0.59375 C 5.117188 2.238281 4.597656 4.0625 4.234375 6.0625 C 3.878906 8.070312 3.710938 10.085938 3.734375 12.109375 C 3.765625 14.140625 4.015625 16.046875 4.484375 17.828125 C 4.960938 19.609375 5.707031 21.097656 6.71875 22.296875 C 7.5 23.253906 8.332031 23.925781 9.21875 24.3125 C 10.101562 24.707031 10.953125 24.804688 11.765625 24.609375 C 12.941406 24.328125 13.96875 23.484375 14.84375 22.078125 C 15.726562 20.679688 16.421875 18.8125 16.921875 16.46875 Z M 16.921875 16.46875 "/></g></g></g><g fill="#000000" fill-opacity="1"><g transform="translate(157.740457, 197.999987)"><g><path d="M 17.59375 -9.328125 C 17.789062 -9.242188 17.925781 -9.09375 18 -8.875 C 18.070312 -8.664062 18.0625 -8.46875 17.96875 -8.28125 C 17.4375 -7.1875 16.851562 -6.09375 16.21875 -5 C 15.59375 -3.90625 14.9375 -2.898438 14.25 -1.984375 C 13.570312 -1.078125 12.867188 -0.351562 12.140625 0.1875 C 11.410156 0.738281 10.679688 1.015625 9.953125 1.015625 C 9.816406 1.015625 9.660156 1 9.484375 0.96875 C 7.609375 0.601562 6.445312 -1.914062 6 -6.59375 C 5.53125 -5.945312 4.976562 -5.222656 4.34375 -4.421875 C 3.71875 -3.628906 3.054688 -2.84375 2.359375 -2.0625 C 2.242188 -1.945312 2.054688 -1.769531 1.796875 -1.53125 C 1.546875 -1.289062 1.253906 -1.097656 0.921875 -0.953125 C 0.585938 -0.816406 0.253906 -0.835938 -0.078125 -1.015625 C -0.753906 -1.265625 -1.078125 -1.988281 -1.046875 -3.1875 C -1.046875 -3.882812 -0.910156 -4.75 -0.640625 -5.78125 C -0.378906 -6.820312 -0.00390625 -7.867188 0.484375 -8.921875 C 0.972656 -9.972656 1.546875 -10.90625 2.203125 -11.71875 C 2.859375 -12.53125 3.59375 -13.078125 4.40625 -13.359375 C 4.914062 -13.554688 5.53125 -13.585938 6.25 -13.453125 C 6.976562 -13.328125 7.738281 -12.804688 8.53125 -11.890625 C 8.664062 -11.722656 8.722656 -11.523438 8.703125 -11.296875 C 8.691406 -11.078125 8.601562 -10.894531 8.4375 -10.75 C 8.269531 -10.613281 8.070312 -10.550781 7.84375 -10.5625 C 7.625 -10.570312 7.445312 -10.664062 7.3125 -10.84375 C 6.632812 -11.625 6.050781 -11.992188 5.5625 -11.953125 C 5.070312 -11.910156 4.660156 -11.765625 4.328125 -11.515625 C 3.710938 -11.066406 3.148438 -10.421875 2.640625 -9.578125 C 2.140625 -8.734375 1.71875 -7.847656 1.375 -6.921875 C 1.039062 -6.003906 0.804688 -5.144531 0.671875 -4.34375 C 0.535156 -3.550781 0.492188 -2.972656 0.546875 -2.609375 C 0.628906 -2.660156 0.71875 -2.726562 0.8125 -2.8125 C 0.914062 -2.894531 1.023438 -3.007812 1.140625 -3.15625 C 1.972656 -4.070312 2.738281 -4.984375 3.4375 -5.890625 C 4.144531 -6.804688 4.75 -7.613281 5.25 -8.3125 C 5.382812 -8.507812 5.515625 -8.695312 5.640625 -8.875 C 5.773438 -9.0625 5.894531 -9.222656 6 -9.359375 C 6.226562 -9.640625 6.523438 -9.726562 6.890625 -9.625 C 7.253906 -9.53125 7.445312 -9.289062 7.46875 -8.90625 C 7.5625 -7.082031 7.710938 -5.617188 7.921875 -4.515625 C 8.128906 -3.410156 8.359375 -2.582031 8.609375 -2.03125 C 8.859375 -1.488281 9.09375 -1.117188 9.3125 -0.921875 C 9.539062 -0.722656 9.710938 -0.625 9.828125 -0.625 C 10.359375 -0.519531 11.210938 -1.066406 12.390625 -2.265625 C 13.566406 -3.472656 14.9375 -5.703125 16.5 -8.953125 C 16.613281 -9.171875 16.773438 -9.3125 16.984375 -9.375 C 17.191406 -9.445312 17.394531 -9.429688 17.59375 -9.328125 Z M 17.59375 -9.328125 "/></g></g><g transform="translate(173.364456, 197.999987)"><g><path d="M 18.6875 -9.625 C 18.851562 -9.476562 18.953125 -9.289062 18.984375 -9.0625 C 19.015625 -8.84375 18.945312 -8.648438 18.78125 -8.484375 C 17.96875 -7.535156 17.066406 -6.484375 16.078125 -5.328125 C 15.097656 -4.179688 14.140625 -3.0625 13.203125 -1.96875 C 12.265625 -0.882812 11.457031 0.0546875 10.78125 0.859375 C 10.113281 1.660156 9.671875 2.203125 9.453125 2.484375 C 8.972656 3.097656 8.507812 3.695312 8.0625 4.28125 C 8.425781 5.90625 8.460938 7.4375 8.171875 8.875 C 7.878906 10.320312 7.390625 11.601562 6.703125 12.71875 C 6.015625 13.84375 5.289062 14.710938 4.53125 15.328125 C 3.75 16.003906 3.023438 16.34375 2.359375 16.34375 C 1.929688 16.34375 1.578125 16.203125 1.296875 15.921875 C 0.828125 15.472656 0.664062 14.804688 0.8125 13.921875 C 0.96875 13.035156 1.328125 12.03125 1.890625 10.90625 C 2.453125 9.789062 3.125 8.628906 3.90625 7.421875 C 4.6875 6.222656 5.484375 5.066406 6.296875 3.953125 C 6.160156 3.441406 5.960938 2.925781 5.703125 2.40625 C 5.453125 1.894531 5.160156 1.375 4.828125 0.84375 C 3.679688 -0.894531 2.707031 -2.523438 1.90625 -4.046875 C 1.113281 -5.578125 0.742188 -6.972656 0.796875 -8.234375 C 0.941406 -10.554688 1.976562 -12.289062 3.90625 -13.4375 C 4.6875 -13.914062 5.507812 -14.195312 6.375 -14.28125 C 7.25 -14.363281 8.050781 -14.238281 8.78125 -13.90625 C 8.976562 -13.789062 9.109375 -13.628906 9.171875 -13.421875 C 9.242188 -13.210938 9.238281 -13.007812 9.15625 -12.8125 C 9.039062 -12.613281 8.878906 -12.476562 8.671875 -12.40625 C 8.460938 -12.34375 8.257812 -12.351562 8.0625 -12.4375 C 7.050781 -12.90625 5.945312 -12.773438 4.75 -12.046875 C 3.289062 -11.179688 2.519531 -9.878906 2.4375 -8.140625 C 2.382812 -7.109375 2.734375 -5.890625 3.484375 -4.484375 C 4.242188 -3.085938 5.140625 -1.617188 6.171875 -0.078125 C 6.703125 0.734375 7.132812 1.554688 7.46875 2.390625 C 7.695312 2.109375 7.9375 1.800781 8.1875 1.46875 C 8.414062 1.1875 8.867188 0.640625 9.546875 -0.171875 C 10.234375 -0.984375 11.039062 -1.929688 11.96875 -3.015625 C 12.894531 -4.109375 13.851562 -5.226562 14.84375 -6.375 C 15.84375 -7.53125 16.75 -8.582031 17.5625 -9.53125 C 17.695312 -9.695312 17.875 -9.796875 18.09375 -9.828125 C 18.320312 -9.859375 18.519531 -9.789062 18.6875 -9.625 Z M 5.046875 12.34375 C 5.234375 12.039062 5.46875 11.597656 5.75 11.015625 C 6.03125 10.441406 6.273438 9.742188 6.484375 8.921875 C 6.691406 8.097656 6.753906 7.179688 6.671875 6.171875 C 5.390625 7.992188 4.429688 9.503906 3.796875 10.703125 C 3.171875 11.910156 2.765625 12.828125 2.578125 13.453125 C 2.398438 14.085938 2.335938 14.503906 2.390625 14.703125 C 2.585938 14.703125 2.9375 14.519531 3.4375 14.15625 C 3.945312 13.789062 4.484375 13.1875 5.046875 12.34375 Z M 5.046875 12.34375 "/></g></g></g><g fill="#000000" fill-opacity="1"><g transform="translate(190.29045, 197.999987)"><g><path d="M 23.6875 -9.40625 C 23.851562 -9.269531 23.941406 -9.085938 23.953125 -8.859375 C 23.972656 -8.640625 23.910156 -8.445312 23.765625 -8.28125 C 20.210938 -4.101562 17.398438 -2.40625 15.328125 -3.1875 C 13.847656 -3.75 13.050781 -5.53125 12.9375 -8.53125 C 12.625 -7.96875 12.289062 -7.328125 11.9375 -6.609375 C 11.59375 -5.898438 11.3125 -5.320312 11.09375 -4.875 C 10.925781 -4.445312 10.753906 -4.066406 10.578125 -3.734375 C 10.410156 -3.398438 10.257812 -3.117188 10.125 -2.890625 C 10.039062 -2.722656 9.890625 -2.476562 9.671875 -2.15625 C 9.460938 -1.84375 9.195312 -1.566406 8.875 -1.328125 C 8.5625 -1.085938 8.191406 -1.023438 7.765625 -1.140625 C 7.265625 -1.273438 6.890625 -1.644531 6.640625 -2.25 C 6.390625 -2.851562 6.234375 -3.507812 6.171875 -4.21875 C 6.117188 -4.9375 6.09375 -5.519531 6.09375 -5.96875 C 6.09375 -6.332031 6.09375 -6.679688 6.09375 -7.015625 C 6.09375 -7.347656 6.101562 -7.65625 6.125 -7.9375 C 5.144531 -6.539062 4.207031 -5.09375 3.3125 -3.59375 C 2.414062 -2.09375 1.46875 -0.378906 0.46875 1.546875 C 0.125 2.191406 -0.238281 2.515625 -0.625 2.515625 C -0.769531 2.515625 -0.898438 2.472656 -1.015625 2.390625 C -1.148438 2.335938 -1.269531 2.25 -1.375 2.125 C -1.488281 2 -1.550781 1.742188 -1.5625 1.359375 C -1.582031 0.984375 -1.53125 0.40625 -1.40625 -0.375 C -1.28125 -1.15625 -1.035156 -2.25 -0.671875 -3.65625 C -0.253906 -5.363281 0.238281 -7.054688 0.8125 -8.734375 C 1.394531 -10.410156 1.976562 -11.921875 2.5625 -13.265625 C 2.644531 -13.492188 2.789062 -13.648438 3 -13.734375 C 3.207031 -13.816406 3.410156 -13.800781 3.609375 -13.6875 C 3.835938 -13.601562 3.984375 -13.457031 4.046875 -13.25 C 4.117188 -13.039062 4.113281 -12.835938 4.03125 -12.640625 C 3.269531 -10.878906 2.585938 -9.035156 1.984375 -7.109375 C 1.390625 -5.191406 0.925781 -3.519531 0.59375 -2.09375 C 1.457031 -3.632812 2.304688 -5.070312 3.140625 -6.40625 C 3.984375 -7.738281 4.867188 -9.035156 5.796875 -10.296875 C 5.878906 -10.398438 6.023438 -10.550781 6.234375 -10.75 C 6.441406 -10.945312 6.726562 -10.988281 7.09375 -10.875 C 7.457031 -10.738281 7.660156 -10.472656 7.703125 -10.078125 C 7.742188 -9.679688 7.753906 -9.023438 7.734375 -8.109375 C 7.734375 -7.796875 7.722656 -7.457031 7.703125 -7.09375 C 7.691406 -6.726562 7.6875 -6.351562 7.6875 -5.96875 C 7.6875 -5.125 7.738281 -4.4375 7.84375 -3.90625 C 7.957031 -3.375 8.054688 -3.007812 8.140625 -2.8125 C 8.203125 -2.863281 8.28125 -2.957031 8.375 -3.09375 C 8.476562 -3.238281 8.597656 -3.425781 8.734375 -3.65625 C 8.847656 -3.851562 8.976562 -4.117188 9.125 -4.453125 C 9.28125 -4.785156 9.457031 -5.148438 9.65625 -5.546875 C 10.382812 -7.109375 10.976562 -8.3125 11.4375 -9.15625 C 11.90625 -10 12.304688 -10.570312 12.640625 -10.875 C 12.972656 -11.1875 13.320312 -11.300781 13.6875 -11.21875 C 14.132812 -11.101562 14.394531 -10.828125 14.46875 -10.390625 C 14.539062 -9.960938 14.578125 -9.617188 14.578125 -9.359375 C 14.546875 -8.046875 14.648438 -6.984375 14.890625 -6.171875 C 15.128906 -5.359375 15.472656 -4.867188 15.921875 -4.703125 C 16.421875 -4.503906 17.222656 -4.726562 18.328125 -5.375 C 19.429688 -6.019531 20.835938 -7.335938 22.546875 -9.328125 C 22.691406 -9.492188 22.875 -9.582031 23.09375 -9.59375 C 23.320312 -9.613281 23.519531 -9.550781 23.6875 -9.40625 Z M 23.6875 -9.40625 "/></g></g></g><g fill="#000000" fill-opacity="1"><g transform="translate(212.172445, 197.999987)"><g><path d="M 12.3125 -9.578125 C 12.5 -9.460938 12.613281 -9.289062 12.65625 -9.0625 C 12.695312 -8.84375 12.664062 -8.632812 12.5625 -8.4375 C 12.03125 -7.601562 11.359375 -6.664062 10.546875 -5.625 C 9.734375 -4.59375 8.847656 -3.609375 7.890625 -2.671875 C 6.941406 -1.734375 6 -0.953125 5.0625 -0.328125 C 4.125 0.285156 3.265625 0.59375 2.484375 0.59375 C 2.140625 0.59375 1.84375 0.535156 1.59375 0.421875 C 0.644531 0.00390625 0.117188 -1.007812 0.015625 -2.625 C -0.078125 -4.238281 0.253906 -6.515625 1.015625 -9.453125 C 1.066406 -9.671875 1.191406 -9.835938 1.390625 -9.953125 C 1.585938 -10.066406 1.78125 -10.09375 1.96875 -10.03125 C 2.195312 -9.976562 2.363281 -9.851562 2.46875 -9.65625 C 2.582031 -9.457031 2.613281 -9.265625 2.5625 -9.078125 C 2.113281 -7.285156 1.832031 -5.863281 1.71875 -4.8125 C 1.601562 -3.757812 1.582031 -2.96875 1.65625 -2.4375 C 1.726562 -1.90625 1.832031 -1.546875 1.96875 -1.359375 C 2.113281 -1.179688 2.195312 -1.09375 2.21875 -1.09375 C 2.582031 -0.925781 3.113281 -1.046875 3.8125 -1.453125 C 4.519531 -1.859375 5.304688 -2.457031 6.171875 -3.25 C 7.035156 -4.050781 7.910156 -4.976562 8.796875 -6.03125 C 9.679688 -7.082031 10.472656 -8.179688 11.171875 -9.328125 C 11.304688 -9.523438 11.476562 -9.644531 11.6875 -9.6875 C 11.90625 -9.726562 12.113281 -9.691406 12.3125 -9.578125 Z M 2.390625 -12.9375 C 1.828125 -12.96875 1.539062 -13.128906 1.53125 -13.421875 C 1.519531 -13.710938 1.644531 -14.007812 1.90625 -14.3125 C 2.175781 -14.625 2.453125 -14.835938 2.734375 -14.953125 C 3.179688 -15.085938 3.507812 -15.054688 3.71875 -14.859375 C 3.925781 -14.671875 4.019531 -14.421875 4 -14.109375 C 3.988281 -13.804688 3.847656 -13.523438 3.578125 -13.265625 C 3.316406 -13.015625 2.921875 -12.90625 2.390625 -12.9375 Z M 2.390625 -12.9375 "/></g></g></g><g fill="#000000" fill-opacity="1"><g transform="translate(222.798444, 197.999987)"><g><path d="M 16.921875 -9.359375 C 17.117188 -9.253906 17.242188 -9.09375 17.296875 -8.875 C 17.359375 -8.664062 17.332031 -8.46875 17.21875 -8.28125 C 15.90625 -5.945312 14.722656 -4.15625 13.671875 -2.90625 C 12.617188 -1.664062 11.546875 -1.117188 10.453125 -1.265625 C 9.054688 -1.429688 7.953125 -2.941406 7.140625 -5.796875 C 6.859375 -6.722656 6.613281 -7.390625 6.40625 -7.796875 C 6.195312 -8.203125 6.03125 -8.453125 5.90625 -8.546875 C 5.78125 -8.640625 5.6875 -8.6875 5.625 -8.6875 C 5.539062 -8.71875 5.375 -8.632812 5.125 -8.4375 C 4.875 -8.238281 4.507812 -7.800781 4.03125 -7.125 C 3.550781 -6.457031 2.960938 -5.414062 2.265625 -4 C 1.566406 -2.59375 0.710938 -0.65625 -0.296875 1.8125 C -0.429688 2.144531 -0.671875 2.3125 -1.015625 2.3125 C -1.097656 2.3125 -1.164062 2.296875 -1.21875 2.265625 C -1.695312 2.148438 -1.90625 1.859375 -1.84375 1.390625 C -1.707031 0.234375 -1.457031 -1.097656 -1.09375 -2.609375 C -0.726562 -4.117188 -0.332031 -5.65625 0.09375 -7.21875 C 0.53125 -8.789062 0.929688 -10.191406 1.296875 -11.421875 C 1.378906 -11.703125 1.457031 -11.960938 1.53125 -12.203125 C 1.601562 -12.441406 1.664062 -12.671875 1.71875 -12.890625 C 1.800781 -13.117188 1.941406 -13.28125 2.140625 -13.375 C 2.335938 -13.476562 2.535156 -13.5 2.734375 -13.4375 C 2.953125 -13.382812 3.117188 -13.257812 3.234375 -13.0625 C 3.347656 -12.863281 3.363281 -12.65625 3.28125 -12.4375 C 3.21875 -12.207031 3.148438 -11.972656 3.078125 -11.734375 C 3.015625 -11.492188 2.941406 -11.238281 2.859375 -10.96875 C 2.660156 -10.238281 2.4375 -9.4375 2.1875 -8.5625 C 1.9375 -7.695312 1.679688 -6.816406 1.421875 -5.921875 C 2.378906 -7.710938 3.191406 -8.898438 3.859375 -9.484375 C 4.535156 -10.078125 5.15625 -10.359375 5.71875 -10.328125 C 6.5 -10.273438 7.113281 -9.84375 7.5625 -9.03125 C 8.007812 -8.21875 8.382812 -7.28125 8.6875 -6.21875 C 9.113281 -4.757812 9.507812 -3.832031 9.875 -3.4375 C 10.238281 -3.050781 10.503906 -2.859375 10.671875 -2.859375 C 11.035156 -2.796875 11.460938 -2.992188 11.953125 -3.453125 C 12.441406 -3.921875 12.929688 -4.507812 13.421875 -5.21875 C 13.910156 -5.9375 14.367188 -6.644531 14.796875 -7.34375 C 15.234375 -8.050781 15.566406 -8.628906 15.796875 -9.078125 C 15.898438 -9.265625 16.0625 -9.382812 16.28125 -9.4375 C 16.507812 -9.5 16.722656 -9.472656 16.921875 -9.359375 Z M 16.921875 -9.359375 "/></g></g></g><g fill="#000000" fill-opacity="1"><g transform="translate(237.792446, 197.999987)"><g><path d="M 14.203125 -9.359375 C 14.390625 -9.253906 14.5 -9.085938 14.53125 -8.859375 C 14.5625 -8.640625 14.519531 -8.445312 14.40625 -8.28125 C 12.75 -5.976562 11.234375 -4.078125 9.859375 -2.578125 C 8.492188 -1.085938 7.125 0.148438 5.75 1.140625 C 4.71875 1.859375 3.695312 2.21875 2.6875 2.21875 C 1.90625 2.21875 1.21875 2.007812 0.625 1.59375 C 0.238281 1.3125 -0.140625 0.8125 -0.515625 0.09375 C -0.898438 -0.613281 -1.101562 -1.644531 -1.125 -3 C -1.15625 -4.363281 -0.820312 -6.148438 -0.125 -8.359375 C -0.125 -8.359375 -0.125 -8.375 -0.125 -8.40625 C 0.71875 -11.09375 1.703125 -13.140625 2.828125 -14.546875 C 3.960938 -15.960938 4.9375 -16.6875 5.75 -16.71875 C 6.394531 -16.75 6.816406 -16.46875 7.015625 -15.875 C 7.316406 -15.0625 6.953125 -13.90625 5.921875 -12.40625 C 4.890625 -10.90625 3.363281 -9.316406 1.34375 -7.640625 C 0.726562 -5.679688 0.429688 -4.148438 0.453125 -3.046875 C 0.484375 -1.941406 0.640625 -1.144531 0.921875 -0.65625 C 1.203125 -0.164062 1.425781 0.148438 1.59375 0.296875 C 2.4375 0.910156 3.515625 0.742188 4.828125 -0.203125 C 6.117188 -1.097656 7.421875 -2.265625 8.734375 -3.703125 C 10.046875 -5.148438 11.488281 -6.984375 13.0625 -9.203125 C 13.195312 -9.367188 13.375 -9.472656 13.59375 -9.515625 C 13.820312 -9.554688 14.023438 -9.503906 14.203125 -9.359375 Z M 5.453125 -14.953125 C 5.148438 -14.753906 4.734375 -14.335938 4.203125 -13.703125 C 3.671875 -13.078125 3.125 -12.164062 2.5625 -10.96875 C 3.570312 -11.945312 4.285156 -12.773438 4.703125 -13.453125 C 5.117188 -14.140625 5.367188 -14.640625 5.453125 -14.953125 Z M 5.453125 -14.953125 "/></g></g></g></svg>